# xmcd
# 
# Track frame offsets:
#     150
#     20114
#     39180
#     54617
# 
# Disc length: 992
# 
# Revision: 3
# Processed by: cddbd v1.5.2PL0 Copyright (c) Steve Scherf et al.
# Submitted via: fre:ac v1.0.17
# 
DISCID=2c03de04
DTITLE=Tommy heavenly6 - I'm Gonna SCREAM+
DYEAR=2006
DGENRE=Rock
TTITLE0=I'm Gonna SCREAM+
TTITLE1=GOING 2 MY WAY!
TTITLE2=+Gothic Pink+(Melancholic guitar version)
TTITLE3=I'm Gonna SCREAM+(original instrumental)
EXTD=
EXTT0=
EXTT1=
EXTT2=
EXTT3=
PLAYORDER=
